<mxfile host="app.diagrams.net" modified="2023-12-12T08:31:04.503Z" agent="Mozilla/5.0 (X11; Linux x86_64) AppleWebKit/537.36 (KHTML, like Gecko) Chrome/119.0.0.0 Safari/537.36" version="22.1.7" etag="bbqx_9jpQzloC-RxnQSP" type="github">
  <diagram name="Page-1" id="SNQXIeeQ9A5P70O6Vp5A">
    <mxGraphModel>
      <root>
        <mxCell id="0" />
        <mxCell id="1" parent="0" />
      </root>
    </mxGraphModel>
  </diagram>
</mxfile>
